<?xml version="1.0" encoding="UTF-8"?><svg id="uuid-d95ab1c4-ea0b-4388-9ffa-b26849633e53" xmlns="http://www.w3.org/2000/svg" viewBox="0 0 33.54 30.93"><defs><style>.uuid-b48296b3-c104-43db-a597-8c458cab8f11{fill:#333;}</style></defs><g id="uuid-a60e750e-ba59-48d1-8487-552d6254f880"><path class="uuid-b48296b3-c104-43db-a597-8c458cab8f11" d="M31.56,1.42c.31,0,.57.25.57.57v16.04c0,.31-.25.57-.57.57h-12.15c-.31,0-.57-.25-.57-.57V1.98c0-.31.25-.57.57-.57h12.15M31.56,0h-12.15C18.31,0,17.42.89,17.42,1.98v16.04c0,1.1.89,1.98,1.98,1.98h12.15c1.1,0,1.98-.89,1.98-1.98V1.98C33.54.89,32.65,0,31.56,0h0Z"/><rect class="uuid-b48296b3-c104-43db-a597-8c458cab8f11" x="17.42" y="21.86" width="16.12" height="9.07" rx="1.98" ry="1.98" transform="translate(50.96 52.79) rotate(-180)"/><rect class="uuid-b48296b3-c104-43db-a597-8c458cab8f11" x="0" y="0" width="16.12" height="10" rx="1.98" ry="1.98" transform="translate(16.12 10) rotate(-180)"/><rect class="uuid-b48296b3-c104-43db-a597-8c458cab8f11" x="0" y="11.69" width="16.12" height="19.24" rx="1.98" ry="1.98" transform="translate(16.12 42.62) rotate(-180)"/></g></svg>