<?xml version="1.0" encoding="UTF-8"?><svg id="uuid-2d3c3303-be59-4e31-9998-897f473fedc2" xmlns="http://www.w3.org/2000/svg" viewBox="0 0 38.55 22.68"><defs><style>.uuid-1ce4f0c6-12ea-4768-8ad1-dd0b6eb34311{fill:#333;}</style></defs><g id="uuid-4a7bdfeb-fad1-4561-b9fd-0f3eeb4f5595"><path class="uuid-1ce4f0c6-12ea-4768-8ad1-dd0b6eb34311" d="M38.32,13.97l-7.17-7.71c1.94-1.3,3.87-2.9,5.76-4.8.34-.34.34-.88,0-1.22-.34-.34-.88-.34-1.22,0-5.96,5.96-12.13,8.82-18.33,8.48C7.97,8.21,1.6.4,1.53.32,1.24-.05.69-.11.32.19S-.11,1.03.19,1.4c.16.2,2.33,2.87,6.02,5.26L.21,13.54c-.31.36-.28.9.08,1.21.16.14.36.21.56.21.24,0,.48-.1.65-.3l6.2-7.11c1.37.77,2.92,1.46,4.6,1.98l-3.92,7.88c-.21.43-.04.94.39,1.15.12.06.25.09.38.09.32,0,.62-.18.77-.48l4.08-8.2c1.04.23,2.12.4,3.25.46.07,0,.14,0,.21,0l-.08,11.36c0,.48.38.86.85.87,0,0,0,0,0,0,.47,0,.86-.38.86-.85l.08-11.37c1.25-.05,2.5-.22,3.74-.51l5.63,8.91c.16.26.44.4.73.4.16,0,.32-.04.46-.13.4-.25.52-.79.27-1.19l-5.35-8.47c1.68-.54,3.35-1.3,5.01-2.27l7.4,7.95c.17.18.4.27.63.27.21,0,.42-.08.59-.23.35-.32.37-.87.04-1.22Z"/></g></svg>