<?xml version="1.0" encoding="UTF-8"?><svg id="uuid-0005f960-63ea-436b-b286-fdf011cb48f1" xmlns="http://www.w3.org/2000/svg" viewBox="0 0 21.8 26.73"><defs><style>.uuid-f0bbd6a4-86a3-4b8a-a740-13f883e9fa17{fill:#9cf;}.uuid-6e0a9632-10a2-4e8b-acb2-df75c4b09bbe{fill:#fff09d;}</style></defs><g id="uuid-e2ad7f61-f02f-46f8-a520-92202c4dad77"><path class="uuid-f0bbd6a4-86a3-4b8a-a740-13f883e9fa17" d="M16.89,10.98V2.19c0-1.21-.79-2.19-1.76-2.19H6.67c-.97,0-1.76.98-1.76,2.19v8.8c0,1.21-.79,2.19-1.76,2.19h-1.39c-.97,0-1.76.98-1.76,2.19v2.18c0,1.21.79,2.19,1.76,2.19h18.28c.97,0,1.76-.98,1.76-2.19v-2.18c0-1.21-.79-2.19-1.76-2.19h-1.39c-.97,0-1.76-.98-1.76-2.19Z"/><path class="uuid-6e0a9632-10a2-4e8b-acb2-df75c4b09bbe" d="M6.45,22.28c0,2.46,1.99,4.45,4.45,4.45s4.45-1.99,4.45-4.45c0-.52-.11-1.02-.27-1.48H6.73c-.17.47-.27.96-.27,1.48Z"/></g></svg>