<?xml version="1.0" encoding="UTF-8"?><svg id="uuid-ebaffe75-4656-4b83-813e-36da50b7a456" xmlns="http://www.w3.org/2000/svg" viewBox="0 0 314.95 27.9"><defs><style>.uuid-964bc585-1473-4fe7-97cf-ddfb42b9fa0e{fill:#9cf;}</style></defs><g id="uuid-55271b12-1a15-42a8-a53f-8c8cd146c427"><path d="M307.8,18.78V.67h7.14v26.46h-7.8l-17.73-18.02v18.02h-7.23V.67h7.8c5.96,6.01,11.81,12.15,17.82,18.1Z"/><path d="M257.34,0c8.01-.09,17,2.49,18.3,11.61s-4.09,14.42-12.52,15.84c-9.45,1.59-22.71-.7-23.37-12.46C239.15,4.22,247.87.11,257.34,0ZM255.86,5.83c-5.41.4-9.45,3.6-8.68,9.41.81,6.14,7.17,7.13,12.32,6.85,5.46-.3,9.71-3.43,8.92-9.35-.85-6.33-7.21-7.29-12.55-6.9Z"/><path d="M74.4.67v5.74h-19.34v4.26h18.38v5.61s-.12.13-.13.13h-18.25v5.05h19.69v5.66h-27.18V.8s.12-.13.13-.13h26.7Z"/><path d="M156.47.8c.03-.1.2-.14.3-.13,6.11.21,12.39-.26,18.48,0s10.58,2.99,9.71,9.71c-.43,3.33-2.71,5.29-5.75,6.35l8.62,10.4h-8.41l-12.24-14.93-.18-.39h7.97c.49,0,1.53-.37,1.94-.68,1.03-.77,1.08-3.24.11-4.07-.85-.73-2.63-.78-3.7-.83-3.18-.13-6.44.1-9.63,0v20.89h-7.23V.8Z"/><path d="M217.28,1.98v6.18c-.72-.19-1.4-.56-2.11-.81-4.2-1.49-8.98-2.25-13.43-1.62-1.04.15-3.69.63-2.86,2.22.49.94,3.13,1.55,4.13,1.79,4.85,1.21,15.9,2.42,16.45,8.89.97,11.52-18.11,9.75-25.04,7.87-.95-.26-1.97-.53-2.84-.99v-6.22c.94.32,1.82.83,2.77,1.2,2.81,1.09,6.1,1.73,9.12,1.85,1.86.08,7.11.03,8.32-1.53,1.61-2.07-2.27-3.04-3.59-3.38-5.33-1.38-17.13-2.07-16.8-9.77.36-8.35,13.19-8.11,19.03-7.25,2.32.34,4.59.94,6.85,1.55Z"/><path d="M124.24.67v15.28c0,5.81,5.58,6.39,10.15,6.14,3.9-.22,6.97-1.92,6.93-6.22V.67s7.1,0,7.1,0c.07,0,.15.21.14.3-.28,5.77.36,11.86,0,17.59-.41,6.61-8.06,9.02-13.63,9.27-6.83.31-17.45-.99-17.91-9.7-.3-5.62.23-11.5,0-17.15-.02-.09.06-.3.14-.3h7.1Z"/><path d="M110.73,25.26c-.09.29-4.17,1.54-4.75,1.69-9.81,2.49-25.66.6-26.26-12.22-.44-9.32,6.79-13.83,15.21-14.58,5.36-.48,10.94.18,15.81,2.48v6.27s-.12.17-.18.09c-1.31-.65-2.59-1.37-3.96-1.88-6.67-2.46-20.24-2.66-19.56,7.53.46,6.86,7.92,7.73,13.38,7.45,3.57-.18,7.08-1.42,10.14-3.19.05-.08.18.08.18.09v6.27Z"/><path d="M29.67,11.81c2.17-.2,3.12-1.32,2.73-3.52-.33-1.91-2.46-1.98-4.04-2.05-3.69-.18-7.52.13-11.22,0-1.29-1.72-2.77-3.3-4.07-5.01-.06-.08-.42-.5-.35-.56h17.21c6.06.12,10.54,2.99,9.79,9.61-.38,3.34-2.7,5.4-5.74,6.45l8.62,10.4h-8.54c-3.97-5.05-8.13-10.02-12.2-15.01l-.08-.31h7.88Z"/><path d="M233.4,27.13h-7.32V.8s.12-.13.13-.13h7.06s.13.12.13.13v26.33Z"/><polygon class="uuid-964bc585-1473-4fe7-97cf-ddfb42b9fa0e" points="28.4 27.13 21.48 27.13 1.13 2.19 0 .67 6.93 .67 27.62 26.05 28.4 27.13"/></g></svg>