<?xml version="1.0" encoding="UTF-8"?><svg id="uuid-61093ce2-da0a-4a28-a4f3-c047cd460dce" xmlns="http://www.w3.org/2000/svg" viewBox="0 0 36.59 36.59"><defs><style>.uuid-91c9004c-22d9-415d-95ec-00750c6b160a{fill:#fff;}.uuid-397a4973-da15-4503-bc60-54c7f4f4f6ab{fill:#9cf;}</style></defs><g id="uuid-a79e3fc0-55ee-441f-a5d7-0887f745b65c"><rect class="uuid-397a4973-da15-4503-bc60-54c7f4f4f6ab" width="36.59" height="36.59" rx="6.28" ry="6.28"/><path d="M23.68,16.18c1.44-.13,2.06-.87,1.81-2.33-.22-1.26-1.63-1.31-2.67-1.36-2.44-.12-4.97.09-7.42,0-.85-1.14-1.83-2.18-2.69-3.31-.04-.06-.28-.33-.23-.37h11.39c4.01.08,6.97,1.98,6.48,6.36-.25,2.21-1.79,3.57-3.8,4.27l5.71,6.88h-5.65c-2.63-3.34-5.38-6.63-8.07-9.93l-.06-.2h5.22Z"/><polygon class="uuid-91c9004c-22d9-415d-95ec-00750c6b160a" points="22.84 26.31 18.26 26.31 4.8 9.81 4.05 8.81 8.63 8.81 22.32 25.6 22.84 26.31"/></g></svg>