<?xml version="1.0" encoding="UTF-8"?><svg id="uuid-007e6d9b-c07d-48fe-974e-e46430937b74" xmlns="http://www.w3.org/2000/svg" viewBox="0 0 44.01 25.95"><defs><style>.uuid-d479c2e6-35b6-4aef-8c38-b6c8acccf09a{fill:#333;}</style></defs><g id="uuid-a18776ac-7d34-4d1f-9635-8844fc9b2c6a"><path class="uuid-d479c2e6-35b6-4aef-8c38-b6c8acccf09a" d="M22,0C9.85,0,0,5.81,0,12.97s9.85,12.97,22,12.97,22-5.81,22-12.97S34.16,0,22,0ZM22,22.04c-5.01,0-9.07-4.06-9.07-9.07S17,3.91,22,3.91s9.07,4.06,9.07,9.07-4.06,9.07-9.07,9.07Z"/><path class="uuid-d479c2e6-35b6-4aef-8c38-b6c8acccf09a" d="M22,8.44c-2.5,0-4.53,2.03-4.53,4.53s2.03,4.53,4.53,4.53,4.53-2.03,4.53-4.53-2.03-4.53-4.53-4.53Z"/></g></svg>