<?xml version="1.0" encoding="UTF-8"?><svg id="uuid-a6c2a170-0a1d-44db-8c74-cd07855b16ed" xmlns="http://www.w3.org/2000/svg" viewBox="0 0 32.76 32.76"><defs><style>.uuid-fb56b401-97f6-4067-af49-f411e2bbeac9{fill:#fff;}.uuid-92bc1fbb-16e8-4aa0-bfc4-372f14d0024d{fill:#b3b3b3;}</style></defs><g id="uuid-96f79764-8c7a-432c-b40d-93413ad0fdb0"><rect class="uuid-92bc1fbb-16e8-4aa0-bfc4-372f14d0024d" width="32.76" height="32.76" rx="5.62" ry="5.62"/><path class="uuid-fb56b401-97f6-4067-af49-f411e2bbeac9" d="M16.38,16.79c-3.17,0-5.74-2.58-5.74-5.74s2.58-5.74,5.74-5.74,5.74,2.58,5.74,5.74-2.58,5.74-5.74,5.74ZM16.38,7.3c-2.07,0-3.76,1.69-3.76,3.76s1.69,3.76,3.76,3.76,3.76-1.69,3.76-3.76-1.69-3.76-3.76-3.76Z"/><path class="uuid-fb56b401-97f6-4067-af49-f411e2bbeac9" d="M25.06,29.41c-.55,0-.99-.44-.99-.99v-4.52c0-1.66-1.35-3.01-3.01-3.01h-9.36c-1.66,0-3.01,1.35-3.01,3.01v4.52c0,.55-.44.99-.99.99s-.99-.44-.99-.99v-4.52c0-2.75,2.24-4.99,4.99-4.99h9.36c2.75,0,4.99,2.24,4.99,4.99v4.52c0,.55-.44.99-.99.99Z"/></g></svg>